<svg xmlns="http://www.w3.org/2000/svg" width="563" height="563" viewBox="0 0 563 563">
    <g fill="#FFF" fill-rule="evenodd" stroke="#133364" opacity=".053">
        <path d="M503 109.807l-4.231-5.307a232.617 232.617 0 0 0-14.41-15.977C430.513 33.988 348.044.625 278.813 1.003L271 1.16c71.33-2.43 158.151 31.712 214.28 88.554 6.556 6.64 12.46 13.356 17.72 20.094"/>
        <path d="M539 171.697l-2.06-4.752c-9.278-20.84-24.088-42.214-44.505-62.936C416.867 27.294 291.86-12.754 206.422 10.645L201 12.2c86.313-25.517 214.704 14.956 291.942 93.361C514.4 127.341 529.729 149.84 539 171.697"/>
        <path d="M558 231.59l-.925-4.824c-6.608-32.604-26.444-67.83-59.75-101.501-87.62-88.58-235.264-132.832-329.777-98.84-7.176 2.579-13.837 5.54-19.985 8.84L143 37.774c6.803-3.825 14.262-7.218 22.368-10.135 95.158-34.222 243.817 10.334 332.041 99.52 34.293 34.673 54.405 70.984 60.591 104.43"/>
        <path d="M561.89 289.488l.103-4.767c.455-41.855-21.582-90.07-66.62-135.625C401.56 54.204 243.478 6.796 142.289 43.215c-17.317 6.227-31.843 14.51-43.56 24.434L95 70.867c12.037-10.578 27.158-19.37 45.342-25.915 101.646-36.577 260.435 11.04 354.67 106.355 45.936 46.467 68.056 95.692 66.879 138.18"/>
        <path d="M555.294 347.385l1.07-4.625c10.742-48.387-11.294-108.472-66.978-164.677-98.024-98.932-263.198-148.354-368.93-110.391-27.038 9.711-47.573 24.192-61.52 42.031L56 113.545c13.99-18.55 34.949-33.596 62.787-43.592C224.761 31.901 390.313 81.44 488.56 180.596c56.483 57.003 78.423 118 66.734 166.789"/>
        <path d="M535.527 402.287l2.04-4.434c23.38-51.959 3.42-122.462-61.22-187.798C376.867 109.498 209.239 59.26 101.933 97.85c-36.092 12.978-60.759 34.352-73.823 60.832L26 163.054c12.854-27.216 37.784-49.19 74.597-62.427 107.315-38.592 274.962 11.648 374.453 112.215 65.32 66.027 85.021 137.332 60.477 189.445"/>
        <path d="M504.239 451.2l2.874-3.894c37.876-52.199 21.867-131.225-49.892-203.799-98.252-99.366-263.812-149.005-369.788-110.873C43.146 148.57 16.27 177.31 7.165 212.62L6 217.276c8.65-36.032 35.615-65.396 80.533-81.558 105.754-38.05 270.964 11.487 369.008 110.643 72.287 73.106 87.879 152.775 48.698 204.84"/>
        <path d="M466.565 494.124l3.636-3.252c53.987-49.032 43.647-134.79-33.526-212.815C341.88 182.213 182.142 134.33 79.89 171.107 28.284 189.675 1.182 226.255-.815 270.259L-1 275.04c1.274-44.676 28.29-81.904 80.434-100.66 101.812-36.625 260.867 11.054 355.26 106.49 77.555 78.41 87.325 164.666 31.87 213.254"/>
        <path d="M418.135 526.067l4.474-2.564C494.31 481.65 491.497 391.1 410.933 309.56 322.13 219.682 172.495 174.78 76.713 209.268 19.04 230.038-5.96 274.854 2.66 326.845l.838 4.865c-9.66-52.597 15.06-98.107 73.174-119.029 95.152-34.265 243.803 10.339 332.02 99.624 80.83 81.815 82.874 172.754 9.444 213.762"/>
        <path d="M361.065 553.02l5.453-1.685c1.85-.588 3.681-1.21 5.492-1.863 87.28-31.4 92.44-123.19 11.52-205.019-80.913-81.827-217.262-122.705-304.539-91.305-62.858 22.614-83.122 76.548-59.318 135.527l1.986 4.815C-3.58 334.05 16.16 279.364 79.35 256.63c86.472-31.111 221.555 9.39 301.721 90.46 80.166 81.068 75.054 172.008-11.413 203.117a157.227 157.227 0 0 1-8.594 2.812"/>
        <path d="M289.083 564l.257-.01 5.952-.282c16.481-.937 32.076-3.86 46.202-8.947 76.548-27.55 81.07-108.084 10.105-179.876-70.966-71.795-190.549-107.66-267.094-80.11-67.96 24.459-79.15 90.684-31.137 155.479l4.109 5.418c-50.793-65.196-40.683-132.767 27.782-157.41 75.58-27.202 193.651 8.21 263.718 79.095 70.071 70.89 65.606 150.409-9.976 177.609-15.17 5.46-32.056 8.396-49.918 9.034"/>
        <path d="M89.54 487.872c-58.483-59.164-54.757-125.535 8.329-148.237 63.086-22.705 161.64 6.854 220.124 66.02 58.49 59.163 54.76 125.534-8.328 148.239-63.085 22.702-161.638-6.853-220.124-66.022-.43-.267-.855-.546-1.275-.828 59.514 60.206 159.799 90.28 223.991 67.177 64.196-23.104 67.99-90.635 8.476-150.84-59.512-60.207-159.798-90.284-223.991-67.18-64.196 23.101-67.987 90.637-8.476 150.843.42.282.845.561 1.275.828"/>
        <path d="M107.859 495.497c-45.604-46.181-42.696-97.982 6.492-115.706 49.189-17.719 126.03 5.35 171.634 51.53 45.601 46.18 42.697 97.984-6.494 115.708-49.189 17.721-126.031-5.352-171.632-51.532a55.294 55.294 0 0 1-1.66-.422c46.749 47.342 125.521 70.992 175.945 52.821 50.424-18.165 53.401-71.264 6.656-118.606-46.746-47.342-125.519-70.994-175.945-52.826-50.421 18.168-53.401 71.27-6.655 118.611.547.148 1.1.289 1.659.422"/>
        <path d="M127.798 497.352c-30.877-31.427-28.908-66.677 4.396-78.735 33.304-12.06 85.33 3.638 116.205 35.063 30.875 31.427 28.906 66.679-4.396 78.737-33.304 12.058-85.33-3.64-116.205-35.065-.673.01-1.338.013-2 .013 32.105 32.671 86.203 48.995 120.83 36.458 34.628-12.536 36.675-49.195 4.573-81.866-32.104-32.679-86.2-49-120.83-36.462-34.627 12.54-36.674 49.19-4.572 81.87.66 0 1.326-.003 2-.013"/>
        <path d="M155.496 493.158c-15.763-15.907-14.758-33.748 2.245-39.854 17.003-6.102 43.565 1.845 59.33 17.747 15.762 15.91 14.758 33.748-2.245 39.856-17.005 6.1-43.568-1.847-59.33-17.75-.791.16-1.58.318-2.36.468 17.08 17.237 45.87 25.849 64.297 19.234 18.429-6.616 19.519-25.954 2.433-43.188-17.083-17.241-45.873-25.85-64.3-19.238-18.429 6.615-19.516 25.953-2.43 43.192.78-.15 1.569-.307 2.36-.467"/>
        <path d="M185.491 484.656c-.612.176-1.218.348-1.824.52.94.772 2.523 1.16 3.534.862 1.01-.298 1.07-1.162.133-1.933-.938-.772-2.52-1.157-3.534-.862-1.01.298-1.073 1.164-.133 1.933.606-.172 1.212-.344 1.824-.52M345.067 92.263c-15.584-15.694-14.589-33.297 2.221-39.324 16.805-6.02 43.064 1.82 58.646 17.511 15.583 15.694 14.586 33.305-2.219 39.325-16.81 6.022-43.064-1.818-58.648-17.512.925-.453 1.847-.899 2.77-1.34 14.264 14.37 38.305 21.546 53.692 16.034 15.384-5.515 16.294-21.635 2.032-36-14.265-14.366-38.304-21.547-53.693-16.032-15.387 5.514-16.294 21.629-2.032 35.998-.922.441-1.844.887-2.769 1.34"/>
        <path d="M312.133 111.331c-31.165-31.641-29.177-67.143 4.438-79.287 33.615-12.146 86.129 3.664 117.294 35.31 31.167 31.65 29.18 67.147-4.436 79.29-33.617 12.142-86.134-3.666-117.296-35.313.943-.576 1.887-1.145 2.83-1.711 29.916 30.378 80.324 45.554 112.592 33.894 32.268-11.656 34.172-45.73 4.26-76.106C401.9 37.032 351.49 21.856 319.221 33.51c-32.268 11.658-34.173 45.73-4.26 76.109-.942.566-1.886 1.135-2.829 1.711"/>
        <path d="M277.266 134.32c-45.434-46.055-42.533-97.717 6.47-115.389 49.005-17.672 125.565 5.337 170.997 51.39 45.432 46.054 42.537 97.714-6.467 115.388-49.01 17.671-125.565-5.335-171-51.39.937-.673 1.877-1.342 2.813-2.008 44.283 44.885 118.9 67.313 166.661 50.084 47.764-17.223 50.59-67.573 6.308-112.46-44.283-44.886-118.9-67.308-166.664-50.087-47.764 17.225-50.587 67.578-6.305 112.463-.936.666-1.876 1.335-2.813 2.009"/>
        <path d="M243.601 158.91c-58.575-59.176-54.842-125.555 8.341-148.264 63.18-22.71 161.884 6.855 220.456 66.032 58.576 59.174 54.843 125.553-8.338 148.26-63.183 22.711-161.886-6.851-220.459-66.028.922-.761 1.847-1.52 2.774-2.276 57.525 58.115 154.462 87.15 216.51 64.846 62.05-22.3 65.719-87.49 8.193-145.606-57.526-58.115-154.46-87.15-216.51-64.846-62.05 22.3-65.719 87.493-8.193 145.606-.927.756-1.852 1.515-2.774 2.276"/>
        <path d="M503.74 109.088c51.206 65.125 41.092 132.666-27.768 157.28-75.935 27.147-194.569-8.193-264.972-78.935.881-.821 1.765-1.64 2.65-2.456 69.486 69.823 186.58 104.703 261.534 77.912 69.316-24.78 78.318-93.628 24.32-159.072l4.236 5.271"/>
        <path d="M210.872 187.668c-70.223-70.835-65.744-150.295 10.001-177.475 15.289-5.487 32.313-8.423 50.325-9.036L279 1c-19.978.11-38.853 3.02-55.617 9.034-74.764 26.828-79.182 105.26-9.869 175.175-.881.817-1.76 1.637-2.642 2.46M540.284 172.439c25.33 59.294 5.612 113.873-57.618 136.551C396.21 339.996 261.15 299.63 181 218.83c.823-.873 1.649-1.75 2.477-2.617 79.387 80.029 213.159 120.011 298.788 89.3 63.536-22.791 82.715-78.094 55.952-137.81l2.067 4.736"/>
        <path d="M181.233 217.615c-80.586-81.108-75.449-172.085 11.475-203.208a158.081 158.081 0 0 1 8.823-2.867L207 9.984a160.207 160.207 0 0 0-11.91 3.731c-86.096 30.828-91.182 120.94-11.366 201.27-.833.875-1.663 1.751-2.49 2.63M556.938 231.401c9.72 52.353-14.977 97.66-73.11 118.481-95.097 34.072-243.66-10.28-331.828-99.06.752-.907 1.507-1.818 2.266-2.723 87.566 88.173 235.117 132.222 329.567 98.386 58.553-20.974 82.95-66.958 72.18-119.886l.925 4.802"/>
        <path d="M151.732 250.557c-80.804-81.508-82.976-172.092-9.816-213.112l4.566-2.505C71.557 75.077 72.932 166.047 154 247.822c-.759.912-1.515 1.826-2.268 2.735M561.897 289.126c-1.234 45.142-28.265 82.76-80.472 101.706C379.563 427.801 220.436 379.677 126 283.341c.664-.948 1.335-1.893 2.008-2.837C222.021 376.409 380.44 424.32 481.85 387.519c52.721-19.137 79.654-57.4 80.15-103.21l-.103 4.817"/>
        <path d="M126.02 284.496C49.69 206.05 40.033 119.764 94.53 71.107l3.677-3.226C42.22 116.061 51.29 202.848 128 281.683c-.666.937-1.324 1.874-1.98 2.813M555.93 347.387c-8.652 36.214-35.708 65.724-80.8 81.962C369.053 467.547 203.34 417.82 105 318.282c.562-.948 1.128-1.892 1.702-2.84 98.114 99.311 263.45 148.922 369.282 110.814 45.71-16.459 72.843-46.592 81.016-83.511l-1.07 4.642"/>
        <path d="M103.335 318.436c-70.941-73.094-86.244-152.75-47.789-204.808l2.872-3.821c-39.75 51.895-24.866 132.185 46.582 205.8-.562.945-1.116 1.884-1.665 2.83M535.956 402.772c-12.863 27.212-37.86 49.178-74.787 62.405-107.52 38.519-275.487-11.625-375.169-112 .441-.935.888-1.864 1.342-2.798 99.669 100.366 267.62 150.505 375.129 111.992 37.658-13.492 62.904-36.07 75.529-64.024l-2.044 4.425"/>
        <path d="M86.661 352.376c-65.365-65.984-85.047-137.241-60.432-189.29l2.11-4.366C2.562 210.9 21.977 282.928 88 349.577c-.453.935-.896 1.864-1.339 2.799M506.123 450.8c-13.977 18.514-34.912 33.532-62.724 43.507C337.531 532.287 172.146 482.844 74 383.88c.285-.849.573-1.7.87-2.556 98.357 99.18 264.092 148.724 370.18 110.667 28.605-10.264 49.958-25.85 63.95-45.078l-2.877 3.886"/>
        <path d="M73.134 383.32c-55.995-56.76-77.727-117.499-66.1-166.06l1.157-4.636c-12.6 48.952 9.022 110.589 65.809 168.15-.298.85-.583 1.699-.866 2.547M466.366 493.956c-12.033 10.527-27.14 19.276-45.289 25.794C319.315 556.285 160.34 508.723 66 413.507c.128-.74.258-1.486.4-2.236 94.747 95.62 254.4 143.39 356.6 106.696 19-6.824 34.674-16.081 47-27.255l-3.634 3.244"/>
        <path d="M65.602 413.268C19.853 366.542-2.157 317.04-.953 274.322l.186-4.799C-2.713 312.863 19.353 363.376 66 411.02c-.14.751-.271 1.502-.398 2.249M418.52 526.79c-6.715 3.704-14.06 6.994-22.035 9.828-95.273 33.873-244.11-10.223-332.44-98.487-.02-.629-.035-1.263-.045-1.904 88.915 88.853 238.741 133.24 334.65 99.143 8.893-3.162 17.01-6.886 24.35-11.116l-4.48 2.535"/>
        <path d="M63 437.225C28.917 402.703 8.944 366.545 2.831 333.25L2 328.419c5.656 34.128 25.885 71.374 60.955 106.895.01.642.025 1.28.045 1.911M360.548 552.316c-86.594 25.695-215.534-14.88-293.075-93.538-.165-.522-.32-1.05-.473-1.588 79.225 80.364 211.595 121.344 299 93.437l-5.452 1.689M67 458.188c-21.462-21.457-36.78-43.619-46.025-65.144L19 388.312c9.199 22.53 25.014 45.806 47.532 68.318.15.528.306 1.045.468 1.558"/>
        <path d="M290.043 563.858l-.257.01c-71.162 2.532-157.872-31.6-213.904-88.485A56.61 56.61 0 0 1 75 474.16c57.896 58.781 148.139 93.574 221 89.416l-5.957.282"/>
        <path d="M77 476.156c-6.623-6.5-12.581-13.076-17.877-19.679L55 451.2c6.086 7.972 13.125 15.925 21.115 23.771.29.403.587.796.885 1.185"/>
    </g>
</svg>
