<svg xmlns="http://www.w3.org/2000/svg" width="745" height="446" viewBox="0 0 745 446">
    <g fill="none" fill-rule="evenodd">
        <path d="M518.191 354.748h45.312v45.332h-45.312zM563.503 173.419h45.312v45.332h-45.312zM654.127 218.751h45.312v45.332h-45.312zM518.191 264.084h45.312v45.332h-45.312zM563.503 309.416h45.312v45.332h-45.312zM608.815 264.084h45.312v45.332h-45.312zM654.127 309.416h45.312v45.332h-45.312zM608.815 354.748h45.312v45.332h-45.312z"/>
        <path fill="#EBF3FC" fill-rule="nonzero" d="M300.214 223.044a221.828 221.828 0 0 1 72.5-164.29c-88.73-81-225.732-76.819-309.363 9.44-83.63 86.26-83.63 223.387 0 309.647 83.63 86.26 220.632 90.44 309.362 9.44a221.641 221.641 0 0 1-72.499-164.237z"/>
        <path fill="#FFF" fill-rule="nonzero" d="M563.503 354.748v-45.332H518.19v-45.332h45.312v45.332h45.312v-45.332h45.312V218.75h45.312V173.42h39.687c-17.633-77.082-74.86-138.994-150.294-162.6-75.434-23.607-157.725-5.355-216.119 47.935a222.361 222.361 0 0 1 72.477 164.264 222.361 222.361 0 0 1-72.477 164.263 221.648 221.648 0 0 0 100.113 52.48v-39.68h45.312v-45.333h45.365zm0-181.33h45.312v45.333h-45.312V173.42z"/>
        <path fill="#EDF9FF" fill-rule="nonzero" d="M445.212 223.044a221.828 221.828 0 0 0-72.499-164.29 222.255 222.255 0 0 0-72.528 164.264 222.255 222.255 0 0 0 72.528 164.263 221.828 221.828 0 0 0 72.5-164.237z"/>
        <path fill="#FFF" fill-rule="nonzero" d="M608.815 309.416h45.312v45.332h-45.312zM518.191 445.307h4.291a221.131 221.131 0 0 0 41.02-3.867v-41.36h-45.311v45.227zM563.503 354.748h45.312v45.332h-45.312zM654.127 264.084h45.312v45.332h-45.312z"/>
        <path fill="#FFF" fill-rule="nonzero" d="M654.127 354.748v45.333h-45.312V428a223.092 223.092 0 0 0 118.53-118.585H699.44v45.332h-45.312zM740.912 264.084a223.854 223.854 0 0 0 3.838-41.04v-4.293H699.44v45.333h41.473z"/>
    </g>
</svg>
