<svg xmlns="http://www.w3.org/2000/svg" width="61" height="65" viewBox="0 0 61 65">
    <g fill="#0087FF" fill-rule="evenodd">
        <path d="M49.4 21.737c2.41 0 4.389-2.007 4.389-4.456 0-2.448-1.978-4.457-4.39-4.457-2.41 0-4.388 2.009-4.388 4.457 0 2.449 1.978 4.456 4.389 4.456M31.844 55.164h26.333V37.337H31.844v17.827zm28.528 2.228V35.108H29.65V57.392h10.973v4.457h-2.088v2.228h13.167V61.85h-2.3v-4.457h10.971zM18.677 47.364h8.778v-2.228h-8.778zM34 18.395h8.778v-2.229H34zM3.314 21.737H29.65V3.91H3.314v17.827zm8.779 6.686h-2.087v2.228h13.166v-2.228h-2.3v-4.457h10.972V1.682H1.12V23.966h10.973v4.457zM12.093 39.903h1.096V32.88h-2.193v7.024zM12.093 41.793c-2.411 0-4.39 2.009-4.39 4.457s1.979 4.457 4.39 4.457c2.41 0 4.389-2.009 4.389-4.457s-1.978-4.457-4.39-4.457M48.302 32.88h2.195v-8.914h-2.195z"/>
    </g>
</svg>
