<svg xmlns="http://www.w3.org/2000/svg" width="92" height="65" viewBox="0 0 92 65">
    <g fill="#0087FF" fill-rule="evenodd">
        <path d="M85.194 32.976h-5.44v-3.14h5.44c1.001 0 1.813.703 1.813 1.57 0 .867-.812 1.57-1.813 1.57m0 6.278h-5.44v-3.14h5.44c1.001 0 1.813.704 1.813 1.57 0 .867-.812 1.57-1.813 1.57m5.144-3.084a4.57 4.57 0 0 0-1.118-1.625c2.01-1.9 1.86-4.85-.335-6.59a5.59 5.59 0 0 0-1.878-.968V25.13H83.38v1.568h-3.626V25.13h-3.628v1.568h-1.813v3.14h1.813v9.417h-1.813v3.14h1.813v1.568h3.628v-1.569h3.626v1.569h3.627v-1.859c2.813-.841 4.304-3.498 3.33-5.933M12.194 32.976h-5.44v-3.14h5.44c1.001 0 1.813.703 1.813 1.57 0 .867-.812 1.57-1.813 1.57m0 6.278h-5.44v-3.14h5.44c1.001 0 1.813.704 1.813 1.57 0 .867-.812 1.57-1.813 1.57m5.144-3.084a4.57 4.57 0 0 0-1.118-1.625c2.01-1.9 1.86-4.85-.335-6.59a5.59 5.59 0 0 0-1.878-.968V25.13H10.38v1.568H6.754V25.13H3.126v1.568H1.313v3.14h1.813v9.417H1.313v3.14h1.813v1.568h3.628v-1.569h3.626v1.569h3.627v-1.859c2.813-.841 4.304-3.498 3.33-5.933M62.082 36.204h8.778v-2.229h-8.778zM20.9 36.204h8.778v-2.229H20.9zM53.2 34.153l-7.328 2.736-7.31-2.729-.018-.026 7.34-12.36 7.341 12.36-.026.019zm-7.316-22.024L32.702 34.317l13.182 19.245L59.07 34.317 45.884 12.13z"/>
    </g>
</svg>
