<svg xmlns="http://www.w3.org/2000/svg" width="70" height="65" viewBox="0 0 70 65">
    <g fill="#0087FF" fill-rule="evenodd">
        <path d="M62.715 47.723h-7.637v-1.956c0-2.154 1.71-3.902 3.818-3.902 2.109 0 3.82 1.748 3.82 3.902v1.956zm3.82 0v-1.956c0-4.308-3.422-7.804-7.639-7.804-4.215 0-7.637 3.496-7.637 7.804v1.956h-1.915V59.43h19.094V47.723h-1.903z"/>
        <path d="M2.865 13.964h54.777v22.315h2.498V11.411H.367v41.52h46.938v-2.553H2.865z"/>
        <path d="M20.902 33.54h-3.674v2.74h3.674c.676 0 1.225-.614 1.225-1.37 0-.756-.549-1.37-1.225-1.37M20.902 28.063h-3.674v2.739h3.674c.676 0 1.225-.613 1.225-1.37 0-.756-.549-1.37-1.225-1.37"/>
        <path d="M41.774 41.31l-6.07-8.96 6.07-10.333 6.07 10.332-6.07 8.962zm-19.647-2.544v1.621h-2.45v-1.37h-2.449v1.37h-2.45v-1.37h-1.225V36.28h1.225v-8.217h-1.225v-2.74h1.225v-1.368h2.45v1.369h2.449v-1.37h2.45v1.622c.47.182.901.469 1.268.846 1.483 1.517 1.584 4.091.226 5.749.336.41.593.893.756 1.419.657 2.124-.35 4.44-2.25 5.176zm8.293-9.168c-1.151-5.328-5.794-9.317-11.354-9.317-6.426 0-11.635 5.324-11.635 11.89 0 6.567 5.209 11.89 11.635 11.89 5.56 0 10.203-3.99 11.354-9.317 1.152 5.327 5.794 9.316 11.354 9.316 6.426 0 11.636-5.322 11.636-11.89 0-6.565-5.21-11.889-11.636-11.889-5.56 0-10.202 3.99-11.354 9.317z"/>
        <path d="M38.395 32.264l3.38 1.762 3.378-1.762-3.379-5.755z"/>
    </g>
</svg>
