<svg xmlns="http://www.w3.org/2000/svg" xmlns:xlink="http://www.w3.org/1999/xlink" width="152" height="89" viewBox="0 0 152 89">
    <defs>
        <path id="b" d="M132.491 31.39h-5.886v-3.52h5.886c1.084 0 1.962.788 1.962 1.76s-.878 1.76-1.962 1.76m0 9.391h-5.886v-4.695h5.886c1.084 0 1.962 1.051 1.962 2.347 0 1.297-.878 2.348-1.962 2.348m6.119-4.329a6.126 6.126 0 0 0-1.229-2.127c2.21-2.486 2.045-6.348-.367-8.625a5.863 5.863 0 0 0-2.064-1.267V22h-3.986v2.053h-3.985V22h-3.986v2.053H121v4.11h1.993v12.325H121v4.11h1.993v2.053h3.986v-2.054h3.985v2.054h3.986v-2.433c3.09-1.102 4.73-4.579 3.66-7.766"/>
        <filter id="a" width="618.5%" height="477.3%" x="-236.9%" y="-152.1%" filterUnits="objectBoundingBox">
            <feOffset dx="4" dy="9" in="SourceAlpha" result="shadowOffsetOuter1"/>
            <feGaussianBlur in="shadowOffsetOuter1" result="shadowBlurOuter1" stdDeviation="14"/>
            <feColorMatrix in="shadowBlurOuter1" values="0 0 0 0 0 0 0 0 0 0 0 0 0 0 0 0 0 0 0.059131567 0"/>
        </filter>
        <path id="d" d="M27.709 23.503l-5.188 1.89-5.177-1.885-.013-.018 5.198-8.533 5.198 8.533-.018.013zM22.529 8L13 23.601l9.528 13.532 9.53-13.532L22.528 8z"/>
        <filter id="c" width="588%" height="419.2%" x="-223%" y="-128.7%" filterUnits="objectBoundingBox">
            <feOffset dx="4" dy="9" in="SourceAlpha" result="shadowOffsetOuter1"/>
            <feGaussianBlur in="shadowOffsetOuter1" result="shadowBlurOuter1" stdDeviation="14"/>
            <feColorMatrix in="shadowBlurOuter1" values="0 0 0 0 0 0 0 0 0 0 0 0 0 0 0 0 0 0 0.059131567 0"/>
        </filter>
    </defs>
    <g fill="none" fill-rule="evenodd">
        <path fill="#1EC0FF" d="M47 44h45v45H47z"/>
        <rect width="45" height="45" x="107" y="12" fill="#133364" rx="22.5"/>
        <use fill="#000" filter="url(#a)" xlink:href="#b"/>
        <use fill="#FFF" xlink:href="#b"/>
        <rect width="45" height="45" fill="#0087FF" rx="22.5"/>
        <g>
            <use fill="#000" filter="url(#c)" xlink:href="#d"/>
            <use fill="#FFF" xlink:href="#d"/>
        </g>
    </g>
</svg>
