<svg xmlns="http://www.w3.org/2000/svg" width="20" height="27" viewBox="0 0 20 27">
    <path fill="#FFF" fill-rule="nonzero" d="M18.657 14.174c-.585-.755-1.467-1.273-2.647-1.555 1.503-.764 2.163-2.062 1.981-3.893-.06-.664-.244-1.24-.552-1.728a3.461 3.461 0 0 0-1.248-1.176 6.877 6.877 0 0 0-1.708-.68c-.615-.156-1.321-.269-2.118-.34V1h-2.328v3.697c-.404 0-1.019.01-1.845.03V1h-2.33v3.803c-.332.01-.82.015-1.466.015L1.19 4.803v2.475H2.87c.766 0 1.214.342 1.346 1.026v4.331c.1 0 .181.005.242.015h-.242v6.067c-.081.512-.373.77-.878.77H1.66l-.469 2.76h3.025c.191 0 .468.003.832.008.362.005.635.008.816.008v3.848h2.33v-3.803c.423.01 1.038.015 1.844.015v3.788h2.329v-3.848c.827-.04 1.56-.116 2.2-.227a8.969 8.969 0 0 0 1.837-.52c.585-.237 1.074-.531 1.467-.883s.718-.8.976-1.344c.256-.543.42-1.172.49-1.886.132-1.398-.095-2.475-.68-3.23zm-10.42-6.73l.598-.008c.327-.005.6-.01.816-.015.217-.005.51.007.877.037.368.03.678.07.93.121.252.05.53.133.832.249.303.116.545.256.726.422.181.166.335.378.46.634.127.257.19.551.19.883 0 .282-.045.538-.136.77a1.45 1.45 0 0 1-.408.58 4.136 4.136 0 0 1-.56.408 2.566 2.566 0 0 1-.733.28c-.297.07-.557.125-.779.165-.221.04-.499.068-.831.083-.333.016-.585.026-.757.03-.171.006-.405.006-.703 0a58.124 58.124 0 0 0-.522-.007V7.443zm6.36 10.276c-.097.231-.22.433-.371.604a2.1 2.1 0 0 1-.598.452 5.129 5.129 0 0 1-.718.317c-.232.081-.512.151-.839.212-.328.06-.615.103-.862.128-.247.025-.542.045-.885.06a19.889 19.889 0 0 1-1.527.015 48.897 48.897 0 0 0-.56-.007v-5.1c.08 0 .32-.006.718-.016.399-.01.724-.015.976-.015s.6.015 1.044.045c.443.03.816.075 1.119.136.302.06.632.153.99.279.358.126.648.28.87.46.222.182.408.413.56.694.15.282.226.604.226.966 0 .282-.048.538-.144.77z"/>
</svg>
