<svg xmlns="http://www.w3.org/2000/svg" width="16" height="17" viewBox="0 0 16 17">
    <g fill="#FFF" fill-rule="evenodd">
        <path d="M1 16h2.947V5.737H1zM12.67 5.857c-.033-.011-.065-.023-.1-.033a1.9 1.9 0 0 0-.126-.027 2.613 2.613 0 0 0-.559-.06c-1.816 0-2.969 1.415-3.348 1.962V5.737H5.42V16h3.116v-5.598s2.355-3.514 3.348-.933V16H15V9.074c0-1.55-.992-2.843-2.33-3.217M2.474 1c.814 0 1.473.707 1.473 1.579s-.66 1.579-1.473 1.579C1.66 4.158 1 3.45 1 2.578 1 1.708 1.66 1 2.474 1"/>
    </g>
</svg>
