<svg xmlns="http://www.w3.org/2000/svg" width="32" height="27" viewBox="0 0 32 27">
    <path fill="#FFF" fill-rule="nonzero" d="M29.482 5.918c-.787-1.397-1.64-1.654-3.379-1.752C24.367 4.05 20.001 4 16.218 4c-3.79 0-8.158.049-9.893.165-1.734.1-2.59.354-3.384 1.753-.81 1.395-1.227 3.797-1.227 8.028v.014c0 4.212.417 6.633 1.227 8.013.794 1.397 1.648 1.65 3.382 1.768 1.737.101 6.105.161 9.895.161 3.783 0 8.149-.06 9.887-.16 1.738-.117 2.592-.37 3.379-1.767.817-1.38 1.23-3.801 1.23-8.013v-.01-.005c0-4.232-.413-6.634-1.232-8.03zm-16.893 13.46V8.524l9.063 5.428-9.063 5.428z"/>
</svg>
