<svg xmlns="http://www.w3.org/2000/svg" width="30" height="27" viewBox="0 0 30 27">
    <path fill="#FFF" fill-rule="nonzero" d="M29 12.478a3.492 3.492 0 0 0-3.485-3.492c-.768 0-1.498.251-2.094.707-1.945-1.354-4.492-2.16-7.201-2.365l1.462-3.437 4.253.996a2.61 2.61 0 0 0 2.587 2.352 2.62 2.62 0 0 0 0-5.239c-.913 0-1.716.473-2.183 1.188l-4.971-1.165a.87.87 0 0 0-1.002.508l-2.021 4.75c-2.926.101-5.713.927-7.818 2.366a3.409 3.409 0 0 0-2.042-.661A3.492 3.492 0 0 0 1 12.478a3.46 3.46 0 0 0 1.762 3.023c-.014.154-.02.311-.02.47 0 4.815 5.471 8.732 12.197 8.732 6.724 0 12.197-3.917 12.197-8.732 0-.136-.006-.27-.014-.405A3.46 3.46 0 0 0 29 12.478zm-4.478-8.732a.874.874 0 0 1 0 1.747.874.874 0 0 1 0-1.747zM8.841 15.098c0-.962.782-1.747 1.742-1.747a1.747 1.747 0 0 1 0 3.493c-.96 0-1.742-.782-1.742-1.746zm10.121 5.792a6.848 6.848 0 0 1-4.023 1.308c-1.41 0-2.82-.436-4.023-1.308a.872.872 0 1 1 1.021-1.415 5.1 5.1 0 0 0 6.004 0 .87.87 0 0 1 1.216.196.875.875 0 0 1-.195 1.22zm.333-4.046a1.746 1.746 0 1 1 0-3.493 1.746 1.746 0 0 1 0 3.493z"/>
</svg>
