<svg xmlns="http://www.w3.org/2000/svg" width="28" height="27" viewBox="0 0 28 27">
    <path fill="#FFF" fill-rule="evenodd" d="M9.395 14.804l11.709-7.153c.21-.128.427.154.246.32l-9.663 8.91c-.34.313-.559.734-.62 1.189l-.33 2.42c-.044.323-.5.355-.59.042L8.88 16.12a1.165 1.165 0 0 1 .515-1.316M1.46 13.767l5.991 2.218 2.319 7.397a.708.708 0 0 0 1.12.334l3.34-2.7c.35-.283.848-.297 1.214-.034l6.023 4.338a.708.708 0 0 0 1.106-.423l4.413-21.053a.704.704 0 0 0-.946-.796L1.452 12.457a.699.699 0 0 0 .007 1.31"/>
</svg>
