<svg xmlns="http://www.w3.org/2000/svg" width="32" height="27" viewBox="0 0 32 27">
    <path fill="#FFF" fill-rule="nonzero" d="M27.237 6.5c1.312-.716 2.18-1.696 2.606-2.941a15.24 15.24 0 0 1-3.818 1.245c-1.142-1.093-2.587-1.649-4.32-1.649-1.694 0-3.125.53-4.292 1.56-1.162 1.037-1.748 2.297-1.748 3.768 0 .447.063.846.19 1.184-4.996-.152-9.13-1.997-12.388-5.55-.552.87-.829 1.755-.829 2.67 0 1.882.892 3.373 2.672 4.468-1.015-.076-1.91-.305-2.672-.68 0 1.344.444 2.467 1.332 3.455.892.977 2.037 1.6 3.435 1.867a7.15 7.15 0 0 1-1.59.17c-.507 0-.865-.037-1.078-.12.373 1.096 1.078 1.984 2.096 2.663 1.015.683 2.183 1.043 3.495 1.075-2.163 1.512-4.636 2.26-7.435 2.26-.685 0-1.17-.01-1.464-.055 2.756 1.593 5.823 2.385 9.218 2.385 3.474 0 6.543-.784 9.215-2.352 2.671-1.56 4.643-3.483 5.91-5.748 1.273-2.263 1.903-4.617 1.903-7.076v-.677c1.231-.825 2.227-1.753 2.988-2.779a14.5 14.5 0 0 1-3.426.858z"/>
</svg>
