<svg xmlns="http://www.w3.org/2000/svg" viewBox="0 0 279.16 166.78"><defs><style>.cls-1{fill:none;}.cls-2{fill:#3588df;}.cls-3{fill:#1dc0fe;}.cls-4{fill:#097be0;}</style></defs><title>資產 4</title><g id="圖層_2" data-name="圖層 2"><g id="圖層_1-2" data-name="圖層 1"><rect class="cls-1" x="194.16" y="132.78" width="17" height="17"/><rect class="cls-1" x="211.16" y="64.78" width="17" height="17"/><rect class="cls-1" x="245.16" y="81.78" width="17" height="17"/><rect class="cls-1" x="194.16" y="98.78" width="17" height="17"/><rect class="cls-1" x="211.16" y="115.78" width="17" height="17"/><rect class="cls-1" x="228.16" y="98.78" width="17" height="17"/><rect class="cls-1" x="245.16" y="115.78" width="17" height="17"/><rect class="cls-1" x="228.16" y="132.78" width="17" height="17"/><path class="cls-2" d="M112.38,83.39a83.17,83.17,0,0,1,27.2-61.61,83.39,83.39,0,1,0,0,123.2A83.1,83.1,0,0,1,112.38,83.39Z"/><path class="cls-3" d="M211.16,132.78v-17h-17v-17h17v17h17v-17h17v-17h17v-17h14.89a83.38,83.38,0,0,0-137.47-43,83.37,83.37,0,0,1,0,123.2,83.17,83.17,0,0,0,37.56,19.68V149.78h17v-17Zm0-68h17v17h-17Z"/><path class="cls-4" d="M166.78,83.39a83.17,83.17,0,0,0-27.2-61.61,83.33,83.33,0,0,0,0,123.2A83.17,83.17,0,0,0,166.78,83.39Z"/><rect class="cls-3" x="228.16" y="115.78" width="17" height="17"/><path class="cls-3" d="M194.16,166.74c.54,0,1.07,0,1.61,0a83,83,0,0,0,15.39-1.45V149.78h-17Z"/><rect class="cls-3" x="211.16" y="132.78" width="17" height="17"/><rect class="cls-3" x="245.16" y="98.78" width="17" height="17"/><path class="cls-3" d="M245.16,132.78v17h-17v10.47a83.68,83.68,0,0,0,44.47-44.47H262.16v17Z"/><path class="cls-3" d="M277.72,98.78a83.91,83.91,0,0,0,1.44-15.39c0-.54,0-1.08,0-1.61h-17v17Z"/></g></g></svg>