<?xml version="1.0" encoding="utf-8"?>
<!-- Generator: Adobe Illustrator 22.1.0, SVG Export Plug-In . SVG Version: 6.00 Build 0)  -->
<svg version="1.1" id="圖層_1" xmlns="http://www.w3.org/2000/svg" xmlns:xlink="http://www.w3.org/1999/xlink" x="0px" y="0px"
	 viewBox="0 0 493.1 93.7" style="enable-background:new 0 0 493.1 93.7;" xml:space="preserve">
<style type="text/css">
	.st0{fill:#FFFFFF;}
</style>
<title>資產 1</title>
<g id="圖層_2_1_">
	<g id="圖層_1-2">
		<g id="_群組_">
			<path id="_複合路徑_" class="st0" d="M0,93.4V1.7h31.3c11.1,0,19.9,3.4,27.1,10.5s10.4,16,10.4,27.1v15.1
				c0,11.2-3.2,20.8-10.4,27.9c-7.1,7.3-16.9,11.3-27.1,11.1H0z M16,15.4v61.9h14.3c6.5,0,11.3-1.8,15-6.2s5.2-9.7,5.2-16.9V39.2
				c0-7-1.4-12.7-5.2-17.1s-8.4-6.6-15-6.6L16,15.4z"/>
			<path id="_複合路徑_2" class="st0" d="M110.1,93.4H89.4V1.7h20.6V93.4z"/>
			<path id="_複合路徑_3" class="st0" d="M206.4,93.4h-16.7l-37.3-62.8l-1-0.5v63.2H133V1.7h19.5l36,62l-0.4-0.3V1.7h18.3V93.4z
				"/>
			<path id="_複合路徑_4" class="st0" d="M305,93.4h-18.3L249,30.7l-1.3-0.5v63.2h-16.1V1.7h18l35.6,62l-0.8-0.3V1.7H305V93.4z"
				/>
			<path id="_複合路徑_5" class="st0" d="M399,79.9c-4.6,3.6-7.3,6.8-13,9.6s-13.2,4.2-21.9,4.2c-11.1,0-21.7-3.5-28.7-10.4
				s-12-15.9-12-26.9v-19c0-11,4.7-20,11.5-26.9S351,0,361.7,0c11.1,0,19.9,2.7,25.8,8.1s9.1,13.4,9.2,22.2v1.3h-17.2
				c-0.3-6.9-1.9-9.6-4.6-12.4c-3.2-3.1-7.6-4.8-12.1-4.7c-5.6,0-10.2,1.9-13.6,6.2s-5.3,9.6-5.3,16.4v19.1c0,6.9,1.9,12.5,5.5,16.8
				s8.4,6.5,14.4,6.5c3.6,0.1,7.2-0.3,10.6-1.3c2.6-0.9,4-2,6.2-3.2V59h-18.4V45.3H399V79.9z"/>
			<path id="_複合路徑_6" class="st0" d="M493.1,55c0,11.2-3.3,20.4-10.3,27.7s-16.1,10.9-27.4,10.9S435,90,427.9,82.7
				S417.4,66.2,417.4,55V38.6c0-11.1,3.6-20.3,10.6-27.6s16.1-11,27.3-11s20.2,3.7,27.3,11s10.4,16.5,10.4,27.7V55z M474.7,38.6
				c0-7.1-1.5-12.9-5-17.5s-8.3-6.8-14.5-6.8s-11,2.3-14.4,6.8s-5.1,10.4-5.1,17.5v16.5c0,7.2,1.8,13.1,5.2,17.7s8.3,6.8,14.5,6.8
				s10.8-2.3,14.3-6.8s5-10.4,5-17.7L474.7,38.6z"/>
		</g>
	</g>
</g>
</svg>
